<svg xmlns="http://www.w3.org/2000/svg" version="1.1" xmlns:xlink="http://www.w3.org/1999/xlink" xmlns:svgjs="http://svgjs.com/svgjs" width="512" height="512" x="0" y="0" viewBox="0 0 32 32" style="enable-background:new 0 0 512 512" xml:space="preserve" class=""><g><g xmlns="http://www.w3.org/2000/svg" id="Layer_49" data-name="Layer 49"><path d="M19,10.191V9a3,3,0,0,0-6,0v1.191A11.012,11.012,0,0,0,4,21a1,1,0,0,0,1,1H8v3a1,1,0,0,0,1,1H23a1,1,0,0,0,1-1V22h3a1,1,0,0,0,1-1A11.012,11.012,0,0,0,19,10.191ZM15,9a1,1,0,0,1,2,0v1H15Zm8,11a1,1,0,0,0-1,1v3H10V22h9a1,1,0,0,0,0-2H6.056A9.012,9.012,0,0,1,15,12h2a9.012,9.012,0,0,1,8.944,8Z" fill="#000000" data-original="#000000" class=""></path><path d="M5.293,8.707A1,1,0,0,0,6.707,7.293l-1-1A1,1,0,0,0,4.293,7.707Z" fill="#000000" data-original="#000000" class=""></path><path d="M5,11a1,1,0,0,0-1-1H3a1,1,0,0,0,0,2H4A1,1,0,0,0,5,11Z" fill="#000000" data-original="#000000" class=""></path><path d="M26,9a1,1,0,0,0,.707-.293l1-1a1,1,0,1,0-1.414-1.414l-1,1A1,1,0,0,0,26,9Z" fill="#000000" data-original="#000000" class=""></path><path d="M29,10H28a1,1,0,0,0,0,2h1a1,1,0,0,0,0-2Z" fill="#000000" data-original="#000000" class=""></path></g></g></svg>