<svg xmlns="http://www.w3.org/2000/svg" version="1.1" xmlns:xlink="http://www.w3.org/1999/xlink" xmlns:svgjs="http://svgjs.com/svgjs" width="512" height="512" x="0" y="0" viewBox="0 0 128 128" style="enable-background:new 0 0 512 512" xml:space="preserve" class=""><g><path xmlns="http://www.w3.org/2000/svg" id="Pulse" d="m64 120c-.063 0-.125-.002-.191-.004-1.789-.086-3.305-1.352-3.707-3.096l-19.821-85.9-8.359 41.785c-.375 1.869-2.016 3.215-3.922 3.215h-24c-2.211 0-4-1.791-4-4s1.789-4 4-4h20.723l11.355-56.785c.371-1.848 1.98-3.188 3.863-3.215 1.73-.033 3.531 1.264 3.957 3.1l20.801 90.148 19.508-58.514c.551-1.66 2.113-2.648 3.879-2.734 1.754.039 3.277 1.215 3.762 2.9l7.168 25.1h24.984c2.211 0 4 1.791 4 4s-1.789 4-4 4h-28c-1.785 0-3.355-1.184-3.848-2.9l-4.445-15.568-19.914 59.734c-.543 1.638-2.078 2.734-3.793 2.734z" fill="#9c9c9c" data-original="#000000" class=""></path></g></svg>