<svg xmlns="http://www.w3.org/2000/svg" version="1.1" xmlns:xlink="http://www.w3.org/1999/xlink" xmlns:svgjs="http://svgjs.com/svgjs" width="512" height="512" x="0" y="0" viewBox="0 0 512 512" style="enable-background:new 0 0 512 512" xml:space="preserve" class=""><g>
<g xmlns="http://www.w3.org/2000/svg">
	<g>
		<path d="M503.708,197.584L452,171.73v-20.25c0-25.078-20.402-45.48-45.48-45.48H45.48C20.402,106.001,0,126.402,0,151.48v209.04    C0,385.598,20.402,406,45.48,406h361.04c25.078,0,45.48-20.402,45.48-45.48v-20.25l51.708-25.854    C508.79,311.875,512,306.682,512,301v-90C512,205.318,508.79,200.126,503.708,197.584z M422,360.52L422,360.52    c0,8.536-6.944,15.48-15.48,15.48H45.48C36.944,376,30,369.056,30,360.52V151.48c0-8.536,6.944-15.48,15.48-15.48h361.04    c8.536,0,15.48,6.944,15.48,15.48V360.52z M482,291.729l-30,15V205.271l30,15V291.729z" fill="#000000" data-original="#000000" class=""></path>
	</g>
</g>
<g xmlns="http://www.w3.org/2000/svg">
	<g>
		<path d="M268.421,247.59c-2.791-4.121-7.443-6.59-12.421-6.59h-37.845l21.772-54.429c3.077-7.692-0.665-16.421-8.356-19.498    c-7.69-3.077-16.421,0.665-19.498,8.356l-30,75c-1.849,4.621-1.284,9.858,1.506,13.98c2.791,4.121,7.443,6.59,12.421,6.59h37.845    l-21.772,54.429c-3.077,7.692,0.665,16.421,8.356,19.498c7.693,3.078,16.423-0.668,19.498-8.356l30-75    C271.776,256.949,271.211,251.712,268.421,247.59z" fill="#000000" data-original="#000000" class=""></path>
	</g>
</g>
<g xmlns="http://www.w3.org/2000/svg">
</g>
<g xmlns="http://www.w3.org/2000/svg">
</g>
<g xmlns="http://www.w3.org/2000/svg">
</g>
<g xmlns="http://www.w3.org/2000/svg">
</g>
<g xmlns="http://www.w3.org/2000/svg">
</g>
<g xmlns="http://www.w3.org/2000/svg">
</g>
<g xmlns="http://www.w3.org/2000/svg">
</g>
<g xmlns="http://www.w3.org/2000/svg">
</g>
<g xmlns="http://www.w3.org/2000/svg">
</g>
<g xmlns="http://www.w3.org/2000/svg">
</g>
<g xmlns="http://www.w3.org/2000/svg">
</g>
<g xmlns="http://www.w3.org/2000/svg">
</g>
<g xmlns="http://www.w3.org/2000/svg">
</g>
<g xmlns="http://www.w3.org/2000/svg">
</g>
<g xmlns="http://www.w3.org/2000/svg">
</g>
</g></svg>