<svg xmlns="http://www.w3.org/2000/svg" version="1.1" xmlns:xlink="http://www.w3.org/1999/xlink" xmlns:svgjs="http://svgjs.com/svgjs" width="512" height="512" x="0" y="0" viewBox="0 0 512 512" style="enable-background:new 0 0 512 512" xml:space="preserve" class=""><g>
<g xmlns="http://www.w3.org/2000/svg">
	<g>
		<g>
			<path d="M488.727,209.455v-46.545c0-25.706-20.839-46.545-46.545-46.545H46.545C20.839,116.364,0,137.203,0,162.909v186.182     c0,25.706,20.839,46.545,46.545,46.545h395.636c25.706,0,46.545-20.839,46.545-46.545v-46.545     c12.853,0,23.273-10.42,23.273-23.273v-46.545C512,219.874,501.58,209.455,488.727,209.455z M465.455,349.091     c0,12.853-10.42,23.273-23.273,23.273H46.545c-12.853,0-23.273-10.42-23.273-23.273V162.909c0-12.853,10.42-23.273,23.273-23.273     h395.636c12.853,0,23.273,10.42,23.273,23.273V349.091z" fill="#000000" data-original="#000000" class=""></path>
		</g>
	</g>
</g>
<g xmlns="http://www.w3.org/2000/svg">
</g>
<g xmlns="http://www.w3.org/2000/svg">
</g>
<g xmlns="http://www.w3.org/2000/svg">
</g>
<g xmlns="http://www.w3.org/2000/svg">
</g>
<g xmlns="http://www.w3.org/2000/svg">
</g>
<g xmlns="http://www.w3.org/2000/svg">
</g>
<g xmlns="http://www.w3.org/2000/svg">
</g>
<g xmlns="http://www.w3.org/2000/svg">
</g>
<g xmlns="http://www.w3.org/2000/svg">
</g>
<g xmlns="http://www.w3.org/2000/svg">
</g>
<g xmlns="http://www.w3.org/2000/svg">
</g>
<g xmlns="http://www.w3.org/2000/svg">
</g>
<g xmlns="http://www.w3.org/2000/svg">
</g>
<g xmlns="http://www.w3.org/2000/svg">
</g>
<g xmlns="http://www.w3.org/2000/svg">
</g>
</g></svg>