<svg xmlns="http://www.w3.org/2000/svg" version="1.1" xmlns:xlink="http://www.w3.org/1999/xlink" xmlns:svgjs="http://svgjs.com/svgjs" width="512" height="512" x="0" y="0" viewBox="0 0 512 512" style="enable-background:new 0 0 512 512" xml:space="preserve" class=""><g><g xmlns="http://www.w3.org/2000/svg"><path d="m397 231h-45.319c-10.125 0-19.183-6.039-23.077-15.384l-39.744-95.385c-2.563-6.152-8.878-9.878-15.502-9.139-20.06 2.228-39.783-3.487-55.542-16.094s-25.665-30.596-27.894-50.654c-.607-5.463-4.154-10.157-9.244-12.233-5.091-2.076-10.908-1.201-15.163 2.28l-75.14 61.478c-12.669 10.365-23.242 22.809-31.426 36.984l-52.9 91.628c-6.01 10.41-7.607 22.537-4.496 34.147s10.557 21.314 20.967 27.324l216.505 125c11.386 6.574 24.353 10.048 37.5 10.048h190.475c24.813 0 45-20.187 45-45v-30c0-63.411-51.589-115-115-115zm83.648 100h-68.648v-68.648c34.863 6.237 62.411 33.785 68.648 68.648zm-371.276-211.912 56.645-46.345c6.568 17.794 17.866 33.527 33.059 45.681 18.9 15.12 41.879 23.145 65.734 23.144.147 0 .293 0 .44-.001l9.822 23.572-27.557 15.91c-7.174 4.142-9.632 13.316-5.49 20.49 2.778 4.812 7.82 7.502 13.004 7.502 2.544 0 5.124-.648 7.486-2.012l24.192-13.967 11.635 27.924-20.827 12.024c-7.174 4.142-9.632 13.316-5.49 20.49 2.778 4.812 7.82 7.502 13.004 7.502 2.544 0 5.124-.648 7.486-2.012l21.815-12.595c9.952 9.215 23.174 14.605 37.352 14.605h30.318v70h-101.455l-148.995-86.022c8.353-20.784 9.825-43.611 4.026-65.646-5.564-21.145-17.313-39.637-33.713-53.46 2.388-2.369 4.886-4.638 7.509-6.784zm-25.63 30.824c22.356 19.843 30.839 51.524 21.43 79.837l-50.643-29.239zm383.258 241.088h-190.475c-7.888 0-15.668-2.085-22.5-6.029l-216.505-125c-3.47-2.003-5.952-5.238-6.989-9.108s-.505-7.913 1.499-11.382l7.5-12.99 229.497 132.5c2.28 1.317 4.867 2.01 7.5 2.01h205.473v15c0 8.27-6.729 14.999-15 14.999z" fill="#9c9c9c" data-original="#9c9c9c" class=""></path><path d="m85 451h-70c-8.284 0-15 6.716-15 15s6.716 15 15 15h70c8.284 0 15-6.716 15-15s-6.716-15-15-15z" fill="#9c9c9c" data-original="#9c9c9c" class=""></path><path d="m397 451h-232c-8.284 0-15 6.716-15 15s6.716 15 15 15h232c8.284 0 15-6.716 15-15s-6.716-15-15-15z" fill="#9c9c9c" data-original="#9c9c9c" class=""></path><path d="m125.014 391h-110c-8.284 0-15 6.716-15 15s6.716 15 15 15h110c8.284 0 15-6.716 15-15s-6.715-15-15-15z" fill="#9c9c9c" data-original="#9c9c9c" class=""></path><path d="m497 451h-40c-8.284 0-15 6.716-15 15s6.716 15 15 15h40c8.284 0 15-6.716 15-15s-6.716-15-15-15z" fill="#9c9c9c" data-original="#9c9c9c" class=""></path></g></g></svg>
