<svg xmlns="http://www.w3.org/2000/svg" version="1.1" xmlns:xlink="http://www.w3.org/1999/xlink" xmlns:svgjs="http://svgjs.com/svgjs" width="24" height="24" x="0" y="0" viewBox="0 0 516.03 516.03" style="enable-background:new 0 0 24 24" xml:space="preserve" class=""><g><path xmlns="http://www.w3.org/2000/svg" d="m448.362 65.364c-91.413-24.491-179.178 146.052-150.796 265.621 1.358 5.722 5.746 10.237 11.426 11.76l121.378 32.522c5.639 1.512 11.712-.167 15.775-4.471 84.912-89.935 92.865-281.142 2.217-305.432zm-19.254 276.436-102.29-27.408c-5.011-28.933-2.79-63.196 6.444-97.66 29.698-110.826 118.857-170.544 143.398-70.724 15.213 61.883-7.43 147.681-47.552 195.792z" fill="#000000" data-original="#000000" class=""></path><path xmlns="http://www.w3.org/2000/svg" d="m415.491 404.409-108.184-28.987c-8.535-2.286-17.309 2.779-19.596 11.313l-10.353 38.637c-10.276 38.349 12.563 77.906 50.912 88.183 38.436 10.299 77.882-12.47 88.181-50.911l10.353-38.638c2.286-8.53-2.777-17.309-11.313-19.597zm-29.949 49.952c-5.719 21.347-27.632 34.012-48.989 28.283-21.305-5.708-33.993-27.686-28.285-48.989l6.212-23.183 77.274 20.705z" fill="#000000" data-original="#000000" class=""></path><path xmlns="http://www.w3.org/2000/svg" d="m218.71 267.864c17.651-74.36-9.925-176.889-62.876-232.082-57.737-60.184-127.086-42.736-147.293 39.467-18.242 74.205 9.068 176.8 61.589 232.428 4.045 4.284 10.102 5.988 15.775 4.471l121.378-32.523c5.681-1.524 10.069-6.039 11.427-11.761zm-29.253-16.593-102.29 27.409c-18.806-22.55-34.014-53.334-43.249-87.798-29.561-110.33 17.325-207.475 88.824-132.948 43.597 45.444 67.56 130.727 56.715 193.337z" fill="#000000" data-original="#000000" class=""></path><path xmlns="http://www.w3.org/2000/svg" d="m228.564 323.614c-2.281-8.514-11.042-13.601-19.596-11.313l-108.184 28.988c-8.536 2.287-13.601 11.061-11.313 19.596l10.353 38.638c8.609 32.131 37.774 53.372 69.563 53.372 47.017 0 81.861-44.621 69.53-90.643zm-48.84 95.909c-21.305 5.712-43.282-6.98-48.991-28.283l-6.211-23.183 77.274-20.706 6.211 23.183c5.722 21.352-6.927 43.268-28.283 48.989z" fill="#000000" data-original="#000000" class=""></path></g></svg>
