<svg xmlns="http://www.w3.org/2000/svg" version="1.1" xmlns:xlink="http://www.w3.org/1999/xlink" xmlns:svgjs="http://svgjs.com/svgjs" width="24" height="24" x="0" y="0" viewBox="0 0 591.93 507.63" style="enable-background:new 0 0 512 512" xml:space="preserve" class=""><g><path xmlns="http://www.w3.org/2000/svg" d="m245.49 544.43a15 15 0 0 1 -6.8-1.64c-1.59-.8-39.49-20.21-89-56.22-45.69-33.29-110.21-87.57-157.79-157.4a276.65 276.65 0 0 1 -18.8-31.89 15 15 0 0 1 .66-14.59 15 15 0 0 1 12.76-7.12h96.48l24.45-35a15 15 0 0 1 25.59 1.62l29.34 56 49.36-105.7a15 15 0 0 1 28.26 3.13l30.8 140.2 43.44-93a15 15 0 0 1 26.88-.62l31.95 61 14.79-21.2a15 15 0 0 1 12.3-6.41h94.84c28.59-63.71 19.7-127.15-24.47-171.11-50.47-50.25-132.59-50.25-183.07 0-8.56 8.52-19.34 18.61-30.75 29.3l-.95.88a15 15 0 0 1 -20.5 0l-1-.93c-11.41-10.73-22.17-20.73-30.72-29.28-50.47-50.24-132.6-50.24-183.07 0-33.4 33.24-47 78.22-38.42 126.63a15 15 0 0 1 -12.13 17.4 15 15 0 0 1 -17.4-12.14c-5.15-28.89-3.68-56.9 4.36-83.25a166.56 166.56 0 0 1 42.42-69.9c62.15-61.86 163.26-61.86 225.41 0 5.91 5.89 13.06 12.68 20.78 19.94 7.72-7.26 14.87-14 20.79-19.94 62.14-61.86 163.26-61.86 225.4 0a166.55 166.55 0 0 1 48.41 98c4.71 37.46-3 77.59-22.21 116.07a15 15 0 0 1 -13.81 8.29h-96.07l-24.46 35a15 15 0 0 1 -25.61-1.55l-29.34-56-49.36 105.65a15 15 0 0 1 -28.23-3.13l-30.8-140.2-43.44 93a15 15 0 0 1 -26.87.62l-31.95-61-14.81 21.19a15 15 0 0 1 -12.29 6.41h-78.57c1.43 2.25 2.91 4.48 4.42 6.7 45.03 66.08 106.54 117.89 150.21 149.76a761.79 761.79 0 0 0 78.58 50.44c27.41-15.13 131.85-76.46 207.41-171.18a15 15 0 1 1 23.45 18.7c-47.82 60-106.1 106.43-146.57 134.86-43.85 30.8-76.12 47.33-77.48 48a15 15 0 0 1 -6.8 1.61z" transform="translate(50.49 -36.8)" fill="#000000" data-original="#000000" class=""></path></g></svg>