<?xml version="1.0" encoding="UTF-8" standalone="no" ?>
<!DOCTYPE svg PUBLIC "-//W3C//DTD SVG 1.1//EN" "http://www.w3.org/Graphics/SVG/1.1/DTD/svg11.dtd">
<svg xmlns="http://www.w3.org/2000/svg" xmlns:xlink="http://www.w3.org/1999/xlink" version="1.1" width="512" height="512" viewBox="0 0 512 512" xml:space="preserve">
<desc>Created with Fabric.js 4.2.0</desc>
<defs>
</defs>
<g transform="matrix(0.95 0 0 0.95 256 256)"  >
<path style="stroke: none; stroke-width: 1; stroke-dasharray: none; stroke-linecap: butt; stroke-dashoffset: 0; stroke-linejoin: miter; stroke-miterlimit: 4; fill: rgb(156,156,156); fill-rule: nonzero; opacity: 1;" vector-effect="non-scaling-stroke"  transform=" translate(-256, -256)" d="M 458.407 312.919 L 356.991 312.919 C 357.835 305.15799999999996 358.40999999999997 297.21799999999996 358.69399999999996 289.188 C 359.71 260.06899999999996 355.84599999999995 231.778 347.52199999999993 207.375 C 338.0759999999999 179.688 323.24199999999996 157.149 303.4319999999999 140.385 C 300.4209999999999 137.837 296.1939999999999 137.298 292.6419999999999 139.01 C 289.0889999999999 140.721 286.8739999999999 144.361 286.98899999999986 148.303 C 287.55499999999984 167.766 279.21299999999985 183.339 264.67399999999986 189.95999999999998 C 253.40199999999987 195.094 240.84899999999988 193.551 232.69499999999988 186.027 C 220.26499999999987 174.559 219.09999999999988 151.48499999999999 229.49799999999988 122.72399999999999 C 238.57699999999988 97.62299999999999 231.86199999999988 63.47199999999999 212.38899999999987 35.72099999999999 C 196.46099999999987 13.02099999999999 175.79799999999986 -7.105427357601002e-15 155.70099999999985 -7.105427357601002e-15 C 151.05599999999984 -7.105427357601002e-15 147.02399999999986 3.199999999999993 145.96999999999986 7.723999999999993 C 129.21299999999985 79.597 101.14999999999986 112.32799999999999 74.01099999999985 143.981 C 57.27499999999985 163.501 41.46699999999986 181.938 29.06399999999985 208.139 C 1.7639999999998501 265.764 -2.5620000000001504 331.557 17.492999999999853 384.13800000000003 C 33.37799999999985 425.78600000000006 63.543999999999855 456.995 104.73499999999986 474.391 C 127.40199999999986 483.951 152.31699999999987 489.07800000000003 177.16599999999985 489.36100000000005 C 185.78599999999986 502.95300000000003 200.95399999999987 512 218.20399999999984 512 L 291.9309999999998 512 C 297.4489999999998 512 301.92299999999983 507.526 301.92299999999983 502.007 C 301.92299999999983 496.488 297.44899999999984 492.014 291.9309999999998 492.014 L 218.2039999999998 492.014 C 206.6909999999998 492.014 196.7519999999998 485.169 192.2269999999998 475.337 C 192.2079999999998 475.294 192.1889999999998 475.252 192.1689999999998 475.209 C 190.53499999999983 471.613 189.61799999999982 467.626 189.61799999999982 463.426 L 189.61799999999982 419.715 L 189.61799999999982 361.46299999999997 C 189.61799999999982 345.715 202.44199999999984 332.90399999999994 218.2049999999998 332.90399999999994 L 261.2049999999998 332.90399999999994 L 458.4079999999998 332.90399999999994 C 474.17099999999976 332.90399999999994 486.9949999999998 345.7149999999999 486.9949999999998 361.46299999999997 L 486.9949999999998 463.42599999999993 C 486.9949999999998 479.18999999999994 474.17099999999976 492.01399999999995 458.4079999999998 492.01399999999995 L 387.1749999999998 492.01399999999995 C 381.6569999999998 492.01399999999995 377.1819999999998 496.48799999999994 377.1819999999998 502.00699999999995 C 377.1819999999998 507.52599999999995 381.6559999999998 511.99999999999994 387.1749999999998 511.99999999999994 L 458.4079999999998 511.99999999999994 C 485.18999999999977 511.99999999999994 506.9799999999998 490.2099999999999 506.9799999999998 463.42699999999996 L 506.9799999999998 361.46399999999994 C 506.9789999999998 334.69699999999995 485.1889999999998 312.9189999999999 458.4069999999998 312.9189999999999 z M 112.505 455.979 C 76.46 440.755 50.06099999999999 413.45 36.16499999999999 377.015 C 18.013999999999992 329.42499999999995 22.109999999999992 269.493 47.123999999999995 216.69199999999998 C 58.382999999999996 192.91099999999997 73.342 175.46299999999997 89.18199999999999 156.98899999999998 C 115.48399999999998 126.31099999999998 145.15699999999998 91.70499999999997 163.28799999999998 21.022999999999968 C 174.50799999999998 24.01499999999997 186.301 33.334999999999965 196.03099999999998 47.20199999999997 C 211.634 69.43799999999997 217.53099999999998 97.05699999999996 210.70499999999998 115.92899999999997 C 192.54199999999997 166.16899999999998 208.196 190.61499999999998 219.14399999999998 200.71499999999997 C 233.22299999999998 213.70599999999996 254.34599999999998 216.61999999999998 272.957 208.14699999999996 C 288.82 200.92299999999997 299.847 187.24699999999996 304.509 169.83499999999998 C 328.087 198.36199999999997 340.399 240.416 338.72200000000004 288.484 C 338.42800000000005 296.77599999999995 337.80600000000004 304.95799999999997 336.88000000000005 312.918 L 268.25800000000004 312.918 C 260.23400000000004 293.326 244.06700000000004 277.295 222.01500000000004 267.293 C 219.24200000000005 266.03700000000003 216.41900000000004 264.895 213.43100000000004 263.686 C 191.40100000000004 254.77599999999998 168.62200000000004 245.563 170.02600000000004 191.64299999999997 C 170.12300000000005 187.94299999999998 168.16500000000005 184.49199999999996 164.94100000000003 182.67599999999996 C 161.717 180.85999999999996 157.75200000000004 180.97399999999996 154.63700000000003 182.97499999999997 C 124.36300000000003 202.42299999999997 102.06800000000003 230.44399999999996 90.15900000000003 264.00899999999996 C 79.38100000000003 294.39 78.01200000000003 327.09399999999994 86.30600000000004 356.09299999999996 C 92.35000000000004 377.22499999999997 103.27700000000004 395.15399999999994 117.90600000000003 407.94199999999995 C 132.28300000000004 420.50899999999996 150.06100000000004 427.85099999999994 169.63300000000004 429.41099999999994 L 169.63300000000004 463.42599999999993 C 169.63300000000004 465.35799999999995 169.75900000000004 467.25999999999993 169.98000000000005 469.1329999999999 C 150.18300000000005 468.0489999999999 130.54700000000005 463.5879999999999 112.50500000000005 455.9789999999999 z M 218.204 312.919 C 191.422 312.919 169.632 334.69599999999997 169.632 361.464 L 169.632 409.363 C 138.96800000000002 406.223 115.27100000000002 384.694 105.519 350.6 C 93.27900000000001 307.803 105.533 248.704 150.637 210.70000000000002 C 155.418 261.786 185.381 273.90000000000003 205.937 282.214 C 208.73000000000002 283.344 211.36800000000002 284.411 213.764 285.497 C 228.281 292.081 239.228 301.425 246.03 312.92 L 218.204 312.92 z" stroke-linecap="round" />
</g>
<g transform="matrix(0.95 0 0 0.95 281.99 412.63)"  >
<path style="stroke: none; stroke-width: 1; stroke-dasharray: none; stroke-linecap: butt; stroke-dashoffset: 0; stroke-linejoin: miter; stroke-miterlimit: 4; fill: rgb(156,0,0); fill-rule: nonzero; opacity: 1;" vector-effect="non-scaling-stroke"  transform=" translate(-319.75, -423.68)" d="M 346.611 445.002 C 346.611 442.933 345.846 441.033 344.287 439.333 C 342.72799999999995 437.60400000000004 341.027 436.75300000000004 339.21299999999997 436.75300000000004 C 338.022 436.75300000000004 336.74699999999996 437.00800000000004 335.38599999999997 437.49000000000007 L 332.63599999999997 438.42500000000007 C 329.85799999999995 439.38900000000007 327.534 439.8710000000001 325.71999999999997 439.8710000000001 C 321.496 439.8710000000001 318.066 438.3400000000001 315.45899999999995 435.2790000000001 C 312.8229999999999 432.18900000000014 311.51899999999995 428.2770000000001 311.51899999999995 423.5150000000001 C 311.51899999999995 420.9640000000001 311.83099999999996 418.7240000000001 312.45399999999995 416.8250000000001 C 313.10599999999994 414.8970000000001 314.06999999999994 413.2530000000001 315.31699999999995 411.8080000000001 C 318.03799999999995 408.7750000000001 321.46799999999996 407.2720000000001 325.60699999999997 407.2720000000001 C 327.59099999999995 407.2720000000001 330.48199999999997 407.9520000000001 334.30899999999997 409.3130000000001 C 336.46299999999997 410.1070000000001 338.022 410.5040000000001 338.95799999999997 410.5040000000001 C 341.11199999999997 410.5040000000001 342.89799999999997 409.62500000000006 344.344 407.86800000000005 C 345.76099999999997 406.11000000000007 346.498 404.04100000000005 346.498 401.66 C 346.498 398.40000000000003 344.429 395.67900000000003 340.28999999999996 393.553 C 336.15099999999995 391.399 331.13399999999996 390.32099999999997 325.23799999999994 390.32099999999997 C 315.7699999999999 390.32099999999997 308.00399999999996 393.467 301.96599999999995 399.76099999999997 C 295.9 406.02599999999995 292.8949999999999 414.04799999999994 292.8949999999999 423.74199999999996 C 292.8949999999999 433.465 295.9559999999999 441.42999999999995 302.07899999999995 447.69499999999994 C 308.20199999999994 453.9309999999999 315.8829999999999 457.0489999999999 325.12399999999997 457.0489999999999 C 331.07699999999994 457.0489999999999 336.15 455.9149999999999 340.34599999999995 453.5909999999999 C 344.5129999999999 451.2949999999999 346.61099999999993 448.4319999999999 346.61099999999993 445.0019999999999 z" stroke-linecap="round" />
</g>
<g transform="matrix(0.95 0 0 0.95 350.81 412.52)"  >
<path style="stroke: none; stroke-width: 1; stroke-dasharray: none; stroke-linecap: butt; stroke-dashoffset: 0; stroke-linejoin: miter; stroke-miterlimit: 4; fill: rgb(156,0,0); fill-rule: nonzero; opacity: 1;" vector-effect="non-scaling-stroke"  transform=" translate(-392.87, -423.57)" d="M 398.852 455.377 C 401.11999999999995 454.356 403.671 452.315 406.534 449.283 C 410.134 454.3 413.025 456.82300000000004 415.265 456.82300000000004 C 417.873 456.82300000000004 420.084 455.973 421.813 454.244 C 423.57 452.543 424.449 450.559 424.449 448.348 L 424.449 398.20300000000003 C 424.449 395.963 423.54200000000003 394.14900000000006 421.699 392.704 C 419.885 391.117 417.759 390.32300000000004 415.378 390.32300000000004 C 412.99699999999996 390.32300000000004 410.134 392.591 406.789 397.12600000000003 C 403.756 394.49 401.14799999999997 392.67600000000004 398.966 391.68300000000005 C 396.78400000000005 390.69000000000005 394.00600000000003 390.20900000000006 390.661 390.20900000000006 C 382.384 390.20900000000006 375.411 393.4410000000001 369.77 399.9320000000001 C 364.12899999999996 406.42300000000006 361.29499999999996 414.36100000000005 361.29499999999996 423.74300000000005 C 361.29499999999996 432.98400000000004 364.10099999999994 440.80800000000005 369.71399999999994 447.2710000000001 C 375.32699999999994 453.7060000000001 382.24299999999994 456.93700000000007 390.43499999999995 456.93700000000007 C 393.77799999999996 456.9360000000001 396.5849999999999 456.42600000000004 398.8519999999999 455.37700000000007 z M 383.43199999999996 435.619 C 380.93699999999995 432.55800000000005 379.68999999999994 428.58900000000006 379.68999999999994 423.742 C 379.68999999999994 418.98 380.93699999999995 415.011 383.43199999999996 411.865 C 385.955 408.719 389.073 407.159 392.81399999999996 407.159 C 396.782 407.159 399.986 408.69 402.42299999999994 411.751 C 404.8599999999999 414.81199999999995 406.05099999999993 418.80899999999997 406.05099999999993 423.74199999999996 C 406.05099999999993 428.53299999999996 404.8039999999999 432.47299999999996 402.3089999999999 435.563 C 399.7859999999999 438.681 396.63999999999993 440.212 392.81299999999993 440.212 C 389.0729999999999 440.211 385.9549999999999 438.68 383.4319999999999 435.61899999999997 z" stroke-linecap="round" />
</g>
<g transform="matrix(0.95 0 0 0.95 408.52 399.38)"  >
<path style="stroke: none; stroke-width: 1; stroke-dasharray: none; stroke-linecap: butt; stroke-dashoffset: 0; stroke-linejoin: miter; stroke-miterlimit: 4; fill: rgb(156,0,0); fill-rule: nonzero; opacity: 1;" vector-effect="non-scaling-stroke"  transform=" translate(-454.31, -409.54)" d="M 460.873 454.073 C 462.687 452.22999999999996 463.623 450.048 463.623 447.49699999999996 L 463.623 371.58399999999995 C 463.623 369.03299999999996 462.687 366.82199999999995 460.873 365.0079999999999 C 459.031 363.1649999999999 456.848 362.2579999999999 454.29699999999997 362.2579999999999 C 451.7459999999999 362.2579999999999 449.563 363.1649999999999 447.72099999999995 365.0079999999999 C 445.9069999999999 366.82199999999995 444.99999999999994 369.0329999999999 444.99999999999994 371.58399999999995 L 444.99999999999994 447.6379999999999 C 444.99999999999994 450.16099999999994 445.9069999999999 452.34399999999994 447.72099999999995 454.1289999999999 C 449.56399999999996 455.9149999999999 451.7459999999999 456.8219999999999 454.29699999999997 456.8219999999999 C 456.848 456.8219999999999 459.03099999999995 455.9149999999999 460.873 454.07299999999987 z" stroke-linecap="round" />
</g>
</svg>